# Blender v2.82 (sub 7) OBJ File: ''
# www.blender.org
# mtllib sphere3.mtl
g flippedNormalsSphere
v 0.382683 0.923880 0.000000
v 0.653281 0.707107 0.270598
v 0.707107 0.707107 0.000000
v 0.653281 0.707107 -0.270598
v 0.353553 0.923880 -0.146447
v 0.000000 1.000000 0.000000
v 0.353553 0.923880 0.146447
v 0.270598 0.923880 0.270598
v 0.270598 0.707107 0.653282
v 0.500000 0.707107 0.500000
v 0.146447 0.923880 0.353553
v 0.000000 0.923880 0.382683
v -0.270598 0.707107 0.653282
v 0.000000 0.707107 0.707107
v -0.146447 0.923880 0.353553
v -0.270598 0.923880 0.270598
v -0.653281 0.707107 0.270598
v -0.500000 0.707107 0.500000
v -0.353553 0.923880 0.146447
v -0.382683 0.923880 0.000000
v -0.653281 0.707107 -0.270598
v -0.707107 0.707107 0.000000
v -0.353553 0.923880 -0.146447
v -0.270598 0.923880 -0.270598
v -0.270598 0.707107 -0.653281
v -0.500000 0.707107 -0.500000
v -0.146447 0.923880 -0.353553
v -0.000000 0.923880 -0.382683
v 0.270598 0.707107 -0.653281
v -0.000000 0.707107 -0.707107
v 0.146447 0.923880 -0.353553
v 0.270598 0.923880 -0.270598
v 0.500000 0.707107 -0.500000
v 0.923880 0.382683 0.000000
v 0.653281 0.382683 0.653281
v 0.853553 0.382683 0.353553
v 0.000000 0.382683 0.923880
v 0.353553 0.382683 0.853553
v -0.653281 0.382683 0.653281
v -0.353553 0.382683 0.853553
v -0.923880 0.382683 0.000000
v -0.853553 0.382683 0.353553
v -0.653281 0.382683 -0.653281
v -0.853553 0.382683 -0.353553
v -0.000000 0.382683 -0.923880
v -0.353553 0.382683 -0.853553
v 0.653281 0.382683 -0.653281
v 0.353553 0.382683 -0.853553
v 0.853553 0.382683 -0.353553
v 0.923880 -0.000000 0.382683
v 1.000000 0.000000 0.000000
v 0.923880 0.000000 -0.382683
v 0.382683 -0.000000 0.923880
v 0.707107 -0.000000 0.707107
v -0.382683 -0.000000 0.923880
v 0.000000 -0.000000 1.000000
v -0.923880 -0.000000 0.382683
v -0.707107 -0.000000 0.707107
v -0.923880 0.000000 -0.382683
v -1.000000 0.000000 0.000000
v -0.382683 0.000000 -0.923880
v -0.707107 0.000000 -0.707107
v 0.382683 0.000000 -0.923880
v -0.000000 0.000000 -1.000000
v 0.707107 0.000000 -0.707107
v 0.923880 -0.382683 -0.000000
v 0.653281 -0.382683 0.653281
v 0.853553 -0.382683 0.353553
v 0.000000 -0.382683 0.923880
v 0.353553 -0.382683 0.853553
v -0.653281 -0.382683 0.653281
v -0.353553 -0.382683 0.853553
v -0.923880 -0.382683 -0.000000
v -0.853553 -0.382683 0.353553
v -0.653281 -0.382683 -0.653281
v -0.853553 -0.382683 -0.353553
v -0.000000 -0.382683 -0.923880
v -0.353553 -0.382683 -0.853553
v 0.653281 -0.382683 -0.653281
v 0.353553 -0.382683 -0.853553
v 0.853553 -0.382683 -0.353553
v 0.653281 -0.707107 0.270598
v 0.707107 -0.707107 -0.000000
v 0.653281 -0.707107 -0.270598
v 0.270598 -0.707107 0.653281
v 0.500000 -0.707107 0.500000
v -0.270598 -0.707107 0.653281
v 0.000000 -0.707107 0.707107
v -0.653281 -0.707107 0.270598
v -0.500000 -0.707107 0.500000
v -0.653281 -0.707107 -0.270598
v -0.707107 -0.707107 -0.000000
v -0.270598 -0.707107 -0.653282
v -0.500000 -0.707107 -0.500000
v 0.270598 -0.707107 -0.653282
v -0.000000 -0.707107 -0.707107
v 0.500000 -0.707107 -0.500000
v 0.382683 -0.923880 -0.000000
v 0.270598 -0.923880 0.270598
v 0.353553 -0.923880 0.146447
v 0.000000 -0.923880 0.382683
v 0.146447 -0.923880 0.353553
v -0.270598 -0.923880 0.270598
v -0.146447 -0.923880 0.353553
v -0.382683 -0.923880 -0.000000
v -0.353553 -0.923880 0.146447
v -0.270598 -0.923880 -0.270598
v -0.353553 -0.923880 -0.146447
v -0.000000 -0.923880 -0.382683
v -0.146447 -0.923880 -0.353553
v 0.270598 -0.923880 -0.270598
v 0.146447 -0.923880 -0.353553
v 0.353553 -0.923880 -0.146447
v 0.000000 -1.000000 -0.000000
vn -0.3776 -0.9257 0.0223
vn -0.7201 -0.6937 0.0140
vn -0.6572 -0.6971 -0.2865
vn -0.3766 -0.9164 0.1357
vn -0.6704 -0.6860 0.2827
vn -0.3680 -0.9136 -0.1728
vn 0.0000 -1.0000 0.0000
vn -0.3054 -0.9171 -0.2561
vn -0.5191 -0.6937 -0.4993
vn -0.2621 -0.6971 -0.6673
vn -0.1381 -0.9136 -0.3824
vn -0.0349 -0.9171 -0.3970
vn -0.0140 -0.6937 -0.7201
vn 0.2865 -0.6971 -0.6572
vn 0.1728 -0.9136 -0.3680
vn 0.2561 -0.9171 -0.3054
vn 0.4993 -0.6937 -0.5191
vn 0.6673 -0.6971 -0.2621
vn 0.3824 -0.9136 -0.1381
vn 0.3970 -0.9171 -0.0349
vn 0.7201 -0.6937 -0.0140
vn 0.6572 -0.6971 0.2865
vn 0.3680 -0.9136 0.1728
vn 0.3054 -0.9171 0.2561
vn 0.5191 -0.6937 0.4993
vn 0.2621 -0.6971 0.6673
vn 0.1381 -0.9136 0.3824
vn 0.0349 -0.9171 0.3970
vn 0.0140 -0.6937 0.7201
vn -0.2865 -0.6971 0.6572
vn -0.1728 -0.9136 0.3680
vn -0.2561 -0.9171 0.3054
vn -0.4993 -0.6937 0.5191
vn -0.9295 -0.3689 -0.0040
vn -0.8597 -0.3738 -0.3480
vn -0.6504 -0.3776 -0.6591
vn -0.3618 -0.3738 -0.8540
vn 0.0062 -0.3776 -0.9259
vn 0.3480 -0.3738 -0.8597
vn 0.6591 -0.3776 -0.6504
vn 0.8540 -0.3738 -0.3618
vn 0.9259 -0.3776 0.0062
vn 0.8597 -0.3738 0.3480
vn 0.6504 -0.3776 0.6591
vn 0.3618 -0.3738 0.8540
vn -0.0062 -0.3776 0.9259
vn -0.3480 -0.3738 0.8597
vn -0.6591 -0.3776 0.6504
vn -0.8540 -0.3738 0.3618
vn -1.0000 -0.0000 0.0000
vn -0.9239 -0.0000 -0.3827
vn -0.9239 -0.0000 0.3827
vn -0.7071 0.0000 -0.7071
vn -0.3827 0.0000 -0.9239
vn -0.0000 0.0000 -1.0000
vn 0.3827 0.0000 -0.9239
vn 0.7071 -0.0000 -0.7071
vn 0.9239 -0.0000 -0.3827
vn 1.0000 0.0000 -0.0000
vn 0.9239 0.0000 0.3827
vn 0.7071 0.0000 0.7071
vn 0.3827 -0.0000 0.9239
vn -0.0000 -0.0000 1.0000
vn -0.3827 -0.0000 0.9239
vn -0.7071 -0.0000 0.7071
vn -0.9291 0.3699 0.0052
vn -0.8536 0.3749 -0.3616
vn -0.6573 0.3795 -0.6511
vn -0.3479 0.3749 -0.8593
vn -0.0044 0.3795 -0.9252
vn 0.3616 0.3749 -0.8536
vn 0.6511 0.3795 -0.6573
vn 0.8593 0.3749 -0.3479
vn 0.9252 0.3795 -0.0044
vn 0.8536 0.3749 0.3616
vn 0.6573 0.3795 0.6511
vn 0.3479 0.3749 0.8593
vn 0.0044 0.3795 0.9252
vn -0.3616 0.3749 0.8536
vn -0.6511 0.3795 0.6573
vn -0.8593 0.3749 0.3479
vn -0.7174 0.6965 -0.0140
vn -0.6600 0.7030 -0.2649
vn -0.6738 0.6884 0.2685
vn -0.4974 0.6965 -0.5172
vn -0.2794 0.7030 -0.6540
vn 0.0140 0.6965 -0.7174
vn 0.2649 0.7030 -0.6600
vn 0.5172 0.6965 -0.4974
vn 0.6540 0.7030 -0.2794
vn 0.7174 0.6965 0.0140
vn 0.6600 0.7030 0.2649
vn 0.4974 0.6965 0.5172
vn 0.2794 0.7030 0.6540
vn -0.0140 0.6965 0.7174
vn -0.2649 0.7030 0.6600
vn -0.5172 0.6965 0.4974
vn -0.3776 0.9257 -0.0223
vn -0.3623 0.9164 -0.1704
vn -0.2859 0.9038 -0.3186
vn -0.1357 0.9164 -0.3766
vn 0.0232 0.9038 -0.4274
vn 0.1704 0.9164 -0.3623
vn 0.3186 0.9038 -0.2859
vn 0.3766 0.9164 -0.1357
vn 0.4274 0.9038 0.0232
vn 0.3623 0.9164 0.1704
vn 0.2859 0.9038 0.3186
vn 0.1357 0.9164 0.3766
vn -0.0232 0.9038 0.4274
vn -0.1704 0.9164 0.3623
vn -0.3186 0.9038 0.2859
vn -0.3766 0.9164 0.1357
vn 0.0000 1.0000 -0.0000
usemtl Default_OBJ
s 1
f 1//1 3//2 2//3
f 1//1 5//4 4//5
f 1//1 7//6 6//7
f 7//6 1//1 2//3
f 7//6 8//8 6//7
f 8//8 7//6 2//3
f 8//8 10//9 9//10
f 8//8 11//11 6//7
f 11//11 8//8 9//10
f 11//11 12//12 6//7
f 12//12 11//11 9//10
f 12//12 14//13 13//14
f 12//12 15//15 6//7
f 15//15 12//12 13//14
f 15//15 16//16 6//7
f 16//16 15//15 13//14
f 16//16 18//17 17//18
f 16//16 19//19 6//7
f 19//19 16//16 17//18
f 19//19 20//20 6//7
f 20//20 19//19 17//18
f 20//20 22//21 21//22
f 20//20 23//23 6//7
f 23//23 20//20 21//22
f 23//23 24//24 6//7
f 24//24 23//23 21//22
f 24//24 26//25 25//26
f 24//24 27//27 6//7
f 27//27 24//24 25//26
f 27//27 28//28 6//7
f 28//28 27//27 25//26
f 28//28 30//29 29//30
f 28//28 31//31 6//7
f 31//31 28//28 29//30
f 31//31 32//32 6//7
f 32//32 31//31 29//30
f 32//32 33//33 4//5
f 32//32 5//4 6//7
f 5//4 32//32 4//5
f 5//4 1//1 6//7
f 3//2 1//1 4//5
f 3//2 4//5 34//34
f 2//3 3//2 34//34
f 2//3 36//35 35//36
f 10//9 8//8 2//3
f 10//9 2//3 35//36
f 9//10 10//9 35//36
f 9//10 38//37 37//38
f 14//13 12//12 9//10
f 14//13 9//10 37//38
f 13//14 14//13 37//38
f 13//14 40//39 39//40
f 18//17 16//16 13//14
f 18//17 13//14 39//40
f 17//18 18//17 39//40
f 17//18 42//41 41//42
f 22//21 20//20 17//18
f 22//21 17//18 41//42
f 21//22 22//21 41//42
f 21//22 44//43 43//44
f 26//25 24//24 21//22
f 26//25 21//22 43//44
f 25//26 26//25 43//44
f 25//26 46//45 45//46
f 30//29 28//28 25//26
f 30//29 25//26 45//46
f 29//30 30//29 45//46
f 29//30 48//47 47//48
f 33//33 32//32 29//30
f 33//33 29//30 47//48
f 4//5 49//49 34//34
f 4//5 33//33 47//48
f 34//34 51//50 50//51
f 34//34 49//49 52//52
f 36//35 2//3 34//34
f 36//35 34//34 50//51
f 35//36 36//35 50//51
f 35//36 54//53 53//54
f 38//37 9//10 35//36
f 38//37 35//36 53//54
f 37//38 38//37 53//54
f 37//38 56//55 55//56
f 40//39 13//14 37//38
f 40//39 37//38 55//56
f 39//40 40//39 55//56
f 39//40 58//57 57//58
f 42//41 17//18 39//40
f 42//41 39//40 57//58
f 41//42 42//41 57//58
f 41//42 60//59 59//60
f 44//43 21//22 41//42
f 44//43 41//42 59//60
f 43//44 44//43 59//60
f 43//44 62//61 61//62
f 46//45 25//26 43//44
f 46//45 43//44 61//62
f 45//46 46//45 61//62
f 45//46 64//63 63//64
f 48//47 29//30 45//46
f 48//47 45//46 63//64
f 47//48 48//47 63//64
f 47//48 65//65 52//52
f 49//49 4//5 47//48
f 49//49 47//48 52//52
f 51//50 34//34 52//52
f 51//50 52//52 66//66
f 50//51 51//50 66//66
f 50//51 68//67 67//68
f 54//53 35//36 50//51
f 54//53 50//51 67//68
f 53//54 54//53 67//68
f 53//54 70//69 69//70
f 56//55 37//38 53//54
f 56//55 53//54 69//70
f 55//56 56//55 69//70
f 55//56 72//71 71//72
f 58//57 39//40 55//56
f 58//57 55//56 71//72
f 57//58 58//57 71//72
f 57//58 74//73 73//74
f 60//59 41//42 57//58
f 60//59 57//58 73//74
f 59//60 60//59 73//74
f 59//60 76//75 75//76
f 62//61 43//44 59//60
f 62//61 59//60 75//76
f 61//62 62//61 75//76
f 61//62 78//77 77//78
f 64//63 45//46 61//62
f 64//63 61//62 77//78
f 63//64 64//63 77//78
f 63//64 80//79 79//80
f 65//65 47//48 63//64
f 65//65 63//64 79//80
f 52//52 81//81 66//66
f 52//52 65//65 79//80
f 66//66 83//82 82//83
f 66//66 81//81 84//84
f 68//67 50//51 66//66
f 68//67 66//66 82//83
f 67//68 68//67 82//83
f 67//68 86//85 85//86
f 70//69 53//54 67//68
f 70//69 67//68 85//86
f 69//70 70//69 85//86
f 69//70 88//87 87//88
f 72//71 55//56 69//70
f 72//71 69//70 87//88
f 71//72 72//71 87//88
f 71//72 90//89 89//90
f 74//73 57//58 71//72
f 74//73 71//72 89//90
f 73//74 74//73 89//90
f 73//74 92//91 91//92
f 76//75 59//60 73//74
f 76//75 73//74 91//92
f 75//76 76//75 91//92
f 75//76 94//93 93//94
f 78//77 61//62 75//76
f 78//77 75//76 93//94
f 77//78 78//77 93//94
f 77//78 96//95 95//96
f 80//79 63//64 77//78
f 80//79 77//78 95//96
f 79//80 80//79 95//96
f 79//80 97//97 84//84
f 81//81 52//52 79//80
f 81//81 79//80 84//84
f 83//82 66//66 84//84
f 83//82 84//84 98//98
f 82//83 83//82 98//98
f 82//83 100//99 99//100
f 86//85 67//68 82//83
f 86//85 82//83 99//100
f 85//86 86//85 99//100
f 85//86 102//101 101//102
f 88//87 69//70 85//86
f 88//87 85//86 101//102
f 87//88 88//87 101//102
f 87//88 104//103 103//104
f 90//89 71//72 87//88
f 90//89 87//88 103//104
f 89//90 90//89 103//104
f 89//90 106//105 105//106
f 92//91 73//74 89//90
f 92//91 89//90 105//106
f 91//92 92//91 105//106
f 91//92 108//107 107//108
f 94//93 75//76 91//92
f 94//93 91//92 107//108
f 93//94 94//93 107//108
f 93//94 110//109 109//110
f 96//95 77//78 93//94
f 96//95 93//94 109//110
f 95//96 96//95 109//110
f 95//96 112//111 111//112
f 97//97 79//80 95//96
f 97//97 95//96 111//112
f 84//84 113//113 98//98
f 84//84 97//97 111//112
f 98//98 113//113 114//114
f 100//99 82//83 98//98
f 100//99 98//98 114//114
f 99//100 100//99 114//114
f 102//101 85//86 99//100
f 102//101 99//100 114//114
f 101//102 102//101 114//114
f 104//103 87//88 101//102
f 104//103 101//102 114//114
f 103//104 104//103 114//114
f 106//105 89//90 103//104
f 106//105 103//104 114//114
f 105//106 106//105 114//114
f 108//107 91//92 105//106
f 108//107 105//106 114//114
f 107//108 108//107 114//114
f 110//109 93//94 107//108
f 110//109 107//108 114//114
f 109//110 110//109 114//114
f 112//111 95//96 109//110
f 112//111 109//110 114//114
f 111//112 112//111 114//114
f 113//113 84//84 111//112
f 113//113 111//112 114//114
